<?xml version="1.0" standalone="no"?>
<!DOCTYPE svg PUBLIC "-//W3C//DTD SVG 20010904//EN"
 "http://www.w3.org/TR/2001/REC-SVG-20010904/DTD/svg10.dtd">
<svg version="1.0" xmlns="http://www.w3.org/2000/svg"
 width="513.000000pt" height="486.000000pt" viewBox="0 0 513.000000 486.000000"
 preserveAspectRatio="xMidYMid meet">

<g transform="translate(0.000000,486.000000) scale(0.100000,-0.100000)"
fill="#000000" stroke="none">
<path d="M2835 4568 c-85 -10 -197 -12 -246 -3 -29 6 -43 3 -67 -15 -27 -20
-33 -21 -68 -9 -53 17 -81 14 -116 -17 -19 -15 -37 -23 -47 -19 -9 4 -45 9
-81 11 -60 3 -70 0 -121 -31 -43 -26 -64 -34 -85 -29 -23 4 -39 -2 -75 -30
-25 -20 -79 -48 -119 -62 -101 -37 -158 -73 -165 -104 -6 -26 -79 -74 -106
-69 -49 10 -89 -31 -89 -91 0 -26 -4 -30 -37 -35 -75 -12 -82 -15 -103 -50
-11 -19 -24 -50 -27 -70 -4 -26 -14 -40 -34 -50 -15 -8 -36 -31 -45 -50 -9
-20 -29 -42 -43 -50 -31 -15 -51 -54 -76 -140 -10 -33 -26 -66 -36 -73 -25
-17 -65 -89 -74 -131 -7 -31 -5 -33 14 -28 13 3 21 0 21 -8 0 -8 -9 -11 -25
-7 -19 3 -27 -1 -35 -19 -6 -13 -22 -42 -35 -64 -26 -43 -33 -95 -12 -95 6 0
-2 -13 -19 -28 -25 -21 -33 -37 -38 -77 -7 -61 -11 -82 -25 -118 -14 -35 -14
-80 -1 -93 6 -6 4 -19 -5 -38 -17 -33 -19 -62 -5 -71 16 -10 11 -38 -10 -65
-23 -30 -25 -68 -5 -97 8 -11 15 -40 14 -64 0 -24 0 -82 0 -129 -2 -131 21
-241 43 -208 5 10 8 8 8 -4 0 -10 -4 -18 -10 -18 -17 0 -11 -30 16 -89 51
-110 61 -136 63 -165 0 -16 8 -40 16 -52 8 -13 15 -31 15 -41 0 -30 29 -63 55
-63 16 0 36 -15 61 -45 20 -25 41 -45 47 -45 6 0 23 11 37 25 14 13 39 27 55
31 28 5 33 1 73 -55 23 -34 47 -61 52 -61 5 0 30 22 56 50 44 48 100 75 127
64 7 -3 28 -33 48 -67 20 -34 43 -63 52 -65 14 -3 49 28 115 101 54 61 119 63
143 5 48 -119 103 -116 197 11 54 72 99 100 141 86 10 -3 34 -30 52 -61 38
-61 57 -71 117 -54 46 12 77 47 110 122 23 52 45 68 97 68 28 0 42 -7 67 -36
38 -43 77 -64 120 -64 61 0 81 19 109 100 25 71 28 76 67 89 39 14 41 14 82
-15 88 -60 95 -64 141 -64 62 0 94 29 103 96 16 108 64 126 175 69 49 -26 84
-37 116 -37 65 -1 81 17 88 99 4 53 10 71 27 85 31 25 58 23 136 -14 39 -18
85 -32 108 -32 l40 -1 9 50 c20 126 21 128 50 138 22 7 48 3 114 -18 47 -14
91 -24 98 -21 7 2 15 33 19 74 4 38 13 77 20 87 14 20 69 22 126 5 19 -5 38
-10 41 -10 4 0 12 30 19 68 16 87 22 94 82 91 33 -2 52 2 58 10 11 18 11 234
0 273 -5 16 -17 36 -27 43 -17 13 -17 15 0 43 23 40 22 48 -8 74 -15 12 -25
32 -25 47 0 14 -14 53 -30 86 -16 33 -30 76 -30 96 0 20 -15 66 -36 108 -21
43 -35 85 -34 104 3 58 0 67 -38 110 -36 40 -78 97 -116 160 -10 16 -31 33
-47 39 -16 5 -29 15 -29 21 0 6 -30 38 -66 72 -46 43 -68 71 -72 94 -6 27 -14
35 -44 46 -52 17 -116 71 -136 114 -14 29 -23 37 -49 39 -21 2 -34 10 -38 23
-8 24 -31 37 -130 69 -64 21 -82 32 -95 56 -16 29 -63 52 -106 53 -12 1 -27 8
-35 17 -9 11 -22 14 -46 9 -49 -9 -162 28 -198 65 -37 38 -84 48 -123 24 -29
-17 -31 -16 -57 4 -30 24 -48 25 -160 10z m-642 -295 c-7 -2 -19 -2 -25 0 -7
3 -2 5 12 5 14 0 19 -2 13 -5z m1607 -69 c0 -8 -4 -12 -10 -9 -5 3 -10 10 -10
16 0 5 5 9 10 9 6 0 10 -7 10 -16z m-2130 -29 c0 -26 -14 -33 -25 -15 -9 14 1
40 15 40 5 0 10 -11 10 -25z m130 -55 c0 -5 -2 -10 -4 -10 -3 0 -8 5 -11 10
-3 6 -1 10 4 10 6 0 11 -4 11 -10z m115 -130 c3 -5 1 -10 -4 -10 -6 0 -11 5
-11 10 0 6 2 10 4 10 3 0 8 -4 11 -10z m-255 -14 c0 -3 -4 -8 -10 -11 -5 -3
-10 -1 -10 4 0 6 5 11 10 11 6 0 10 -2 10 -4z m-50 -26 c0 -5 -4 -10 -10 -10
-5 0 -10 5 -10 10 0 6 5 10 10 10 6 0 10 -4 10 -10z m-80 -25 c0 -8 -4 -15
-10 -15 -5 0 -7 7 -4 15 4 8 8 15 10 15 2 0 4 -7 4 -15z m510 5 c0 -5 -4 -10
-10 -10 -5 0 -10 5 -10 10 0 6 5 10 10 10 6 0 10 -4 10 -10z m-180 -40 c0 -5
-5 -10 -11 -10 -5 0 -7 5 -4 10 3 6 8 10 11 10 2 0 4 -4 4 -10z m-323 -35 c-9
-8 -20 -15 -26 -15 -6 0 -11 -4 -11 -10 0 -5 -6 -10 -13 -10 -7 0 -20 -9 -30
-20 -17 -21 -47 -27 -47 -10 0 11 130 90 139 84 2 -2 -4 -10 -12 -19z m1263
-94 c-1 -13 -3 -13 -15 3 -19 26 -19 42 0 26 8 -7 15 -20 15 -29z m-1459 6
c-13 -13 -26 -3 -16 12 3 6 11 8 17 5 6 -4 6 -10 -1 -17z m614 -57 c3 -6 -1
-7 -9 -4 -18 7 -21 14 -7 14 6 0 13 -4 16 -10z m-590 -30 c3 -5 1 -10 -4 -10
-6 0 -11 5 -11 10 0 6 2 10 4 10 3 0 8 -4 11 -10z m152 4 c-3 -3 -12 -4 -19
-1 -8 3 -5 6 6 6 11 1 17 -2 13 -5z m108 -74 c3 -5 1 -10 -4 -10 -6 0 -11 5
-11 10 0 6 2 10 4 10 3 0 8 -4 11 -10z m425 -56 c0 -8 -4 -12 -10 -9 -5 3 -10
10 -10 16 0 5 5 9 10 9 6 0 10 -7 10 -16z m-194 -39 c4 -8 12 -15 20 -15 8 0
14 -5 14 -11 0 -5 15 -16 33 -24 17 -7 42 -22 55 -33 22 -19 29 -42 13 -42 -8
0 -54 33 -79 57 -7 7 -18 13 -24 13 -12 0 -52 42 -55 59 -4 17 17 13 23 -4z
m-306 -45 c0 -5 -4 -10 -10 -10 -5 0 -10 5 -10 10 0 6 5 10 10 10 6 0 10 -4
10 -10z m150 -60 c0 -4 10 -11 23 -15 12 -4 25 -8 30 -10 4 -1 15 -3 25 -4 22
-2 58 -29 49 -37 -3 -4 -17 0 -29 8 -13 8 -44 20 -70 28 -27 7 -48 16 -48 21
0 5 -6 6 -14 3 -14 -5 -30 22 -21 37 6 9 55 -18 55 -31z m-310 11 c0 -12 -29
-41 -41 -41 -14 0 -11 11 9 31 19 20 32 24 32 10z m-285 -43 c-11 -38 -39 -87
-52 -93 -10 -3 -11 0 -5 13 4 9 17 36 28 59 20 45 40 59 29 21z m1255 12 c0
-5 -4 -10 -10 -10 -5 0 -10 5 -10 10 0 6 5 10 10 10 6 0 10 -4 10 -10z m-940
-85 c0 -8 -2 -15 -4 -15 -2 0 -6 7 -10 15 -3 8 -1 15 4 15 6 0 10 -7 10 -15z
m-289 -58 c-16 -16 -26 0 -10 19 9 11 15 12 17 4 2 -6 -1 -17 -7 -23z m79 21
c-1 -16 -50 -53 -50 -38 0 5 4 10 9 10 5 0 13 9 16 20 7 22 25 27 25 8z m-177
-13 c-3 -9 -8 -14 -10 -11 -3 3 -2 9 2 15 9 16 15 13 8 -4z m747 -29 c-14 -13
-49 -21 -75 -17 -15 3 47 29 70 30 17 1 17 -1 5 -13z m-104 -42 c-5 -14 -9
-15 -19 -5 -9 9 -9 14 3 21 18 11 24 6 16 -16z m-45 -17 c-13 -13 -26 -3 -16
12 3 6 11 8 17 5 6 -4 6 -10 -1 -17z m-181 9 c0 -3 -4 -8 -10 -11 -5 -3 -10
-1 -10 4 0 6 5 11 10 11 6 0 10 -2 10 -4z m-400 -32 c0 -8 -4 -12 -10 -9 -5 3
-10 10 -10 16 0 5 5 9 10 9 6 0 10 -7 10 -16z m1014 -9 c-4 -8 -11 -15 -16
-15 -6 0 -5 6 2 15 7 8 14 15 16 15 2 0 1 -7 -2 -15z m160 -29 c-6 -16 -24
-23 -24 -8 0 10 22 33 27 28 2 -2 1 -11 -3 -20z m-739 -53 c8 -15 11 -31 8
-36 -9 -16 -21 7 -26 53 -3 25 -4 37 -1 27 3 -10 12 -30 19 -44z m1235 14 c0
-5 -4 -5 -10 -2 -5 3 -10 14 -10 23 0 15 2 15 10 2 5 -8 10 -19 10 -23z
m-1511 -9 c-8 -14 -14 -18 -17 -10 -4 13 17 46 25 38 3 -2 -1 -15 -8 -28z
m-159 -9 c0 -11 -4 -18 -10 -14 -5 3 -7 12 -3 20 7 21 13 19 13 -6z m1667 -31
c-3 -7 -5 -2 -5 12 0 14 2 19 5 13 2 -7 2 -19 0 -25z m-1029 10 c-6 -17 -55
-17 -76 -1 -15 10 -10 12 31 13 35 0 47 -4 45 -12z m65 -8 c4 -17 1 -20 -18
-17 -29 4 -39 12 -30 26 11 18 42 12 48 -9z m607 6 c0 -3 -4 -8 -10 -11 -5 -3
-10 -1 -10 4 0 6 5 11 10 11 6 0 10 -2 10 -4z m-523 -36 c3 -11 2 -11 -4 -3
-6 8 -14 9 -23 3 -23 -15 -34 -12 -20 5 16 19 42 16 47 -5z m303 16 c0 -2 -7
-9 -15 -16 -13 -11 -14 -10 -9 4 5 14 24 23 24 12z m-750 -37 c0 -5 -7 -9 -15
-9 -9 0 -12 6 -9 15 6 15 24 11 24 -6z m1338 -10 c-3 -8 -7 -3 -11 10 -4 17
-3 21 5 13 5 -5 8 -16 6 -23z m-428 -3 c0 -3 -4 -8 -10 -11 -5 -3 -10 -1 -10
4 0 6 5 11 10 11 6 0 10 -2 10 -4z m-983 -83 c14 -13 17 -23 6 -23 -13 0 -83
70 -83 83 0 6 14 -2 32 -19 18 -16 38 -34 45 -41z m763 53 c0 -3 -4 -8 -10
-11 -5 -3 -10 -1 -10 4 0 6 5 11 10 11 6 0 10 -2 10 -4z m166 -22 c-4 -9 -9
-15 -11 -12 -3 3 -3 13 1 22 4 9 9 15 11 12 3 -3 3 -13 -1 -22z m264 -29 c0
-19 -4 -35 -10 -35 -11 0 -14 53 -3 63 11 12 13 8 13 -28z m-1580 -9 c0 -3 -4
-8 -10 -11 -5 -3 -10 -1 -10 4 0 6 5 11 10 11 6 0 10 -2 10 -4z m104 -73 c-9
-91 -27 -120 -20 -33 4 62 13 100 22 100 3 0 2 -30 -2 -67z m1169 47 c-3 -11
-9 -20 -15 -20 -5 0 -4 9 2 20 6 11 12 20 14 20 2 0 2 -9 -1 -20z m-817 -21
c34 -21 40 -30 27 -42 -3 -4 -19 6 -34 22 -15 16 -30 27 -32 24 -3 -2 -8 0
-12 6 -10 18 15 13 51 -10z m331 15 c-10 -11 -144 -17 -150 -7 -3 5 31 10 76
12 45 1 78 -1 74 -5z m447 -58 c-6 -16 -24 -23 -24 -8 0 10 22 33 27 28 2 -2
1 -11 -3 -20z m-1049 -56 c-3 -5 -13 -6 -21 -3 -12 4 -13 8 -3 14 15 9 32 2
24 -11z m709 5 c-4 -8 -8 -15 -10 -15 -2 0 -4 7 -4 15 0 8 4 15 10 15 5 0 7
-7 4 -15z m475 -17 c-6 -12 -21 -35 -33 -49 -12 -14 -33 -47 -48 -73 -15 -25
-32 -46 -38 -46 -12 0 35 86 60 112 10 9 27 33 40 53 24 39 40 42 19 3z
m-1095 13 c3 -4 3 -11 0 -14 -8 -8 -34 3 -34 14 0 11 27 12 34 0z m910 -26
c-9 -14 -19 -24 -21 -21 -7 7 16 46 28 46 5 0 2 -11 -7 -25z m-24 -38 c0 -2
-10 -12 -22 -23 l-23 -19 19 23 c18 21 26 27 26 19z m-720 -47 c0 -5 -4 -10
-10 -10 -5 0 -10 5 -10 10 0 6 5 10 10 10 6 0 10 -4 10 -10z m181 -23 c-16
-16 -26 0 -10 19 9 11 15 12 17 4 2 -6 -1 -17 -7 -23z m-306 -7 c-3 -5 -10
-10 -16 -10 -5 0 -9 5 -9 10 0 6 7 10 16 10 8 0 12 -4 9 -10z m102 -12 c-3 -8
-6 -5 -6 6 -1 11 2 17 5 13 3 -3 4 -12 1 -19z m693 18 c0 -3 -4 -8 -10 -11 -5
-3 -10 -1 -10 4 0 6 5 11 10 11 6 0 10 -2 10 -4z m-360 -31 c0 -8 -4 -15 -10
-15 -5 0 -10 7 -10 15 0 8 5 15 10 15 6 0 10 -7 10 -15z m474 -70 c-23 -36
-30 -23 -8 15 10 17 20 26 22 21 2 -5 -4 -21 -14 -36z m-34 -55 c-6 -11 -12
-20 -14 -20 -2 0 -2 9 1 20 3 11 9 20 15 20 5 0 4 -9 -2 -20z m-860 -40 c0 -5
-4 -10 -10 -10 -5 0 -10 5 -10 10 0 6 5 10 10 10 6 0 10 -4 10 -10z m1261 -27
c-8 -15 -10 -15 -11 -2 0 17 10 32 18 25 2 -3 -1 -13 -7 -23z m-204 -117 c-13
-28 -47 -53 -47 -35 0 9 48 59 57 59 0 0 -4 -11 -10 -24z m-102 -146 c-10 -11
-20 -18 -23 -15 -7 6 18 35 31 35 5 0 2 -9 -8 -20z m-879 -38 c-4 -3 -14 2
-24 12 -16 18 -16 18 6 6 13 -6 21 -14 18 -18z m144 -182 c12 -8 9 -10 -12
-10 -16 0 -28 5 -28 10 0 13 20 13 40 0z"/>
<path d="M4040 1780 c0 -5 5 -10 10 -10 6 0 10 5 10 10 0 6 -4 10 -10 10 -5 0
-10 -4 -10 -10z"/>
<path d="M3760 1590 c0 -5 5 -10 10 -10 6 0 10 5 10 10 0 6 -4 10 -10 10 -5 0
-10 -4 -10 -10z"/>
<path d="M3470 1319 c0 -5 5 -7 10 -4 6 3 10 8 10 11 0 2 -4 4 -10 4 -5 0 -10
-5 -10 -11z"/>
</g>
</svg>
